<svg xmlns="http://www.w3.org/2000/svg" viewBox="0 0 64 64" role="img" aria-labelledby="title desc">
  <title id="title">QR Code Generator icon</title>
  <desc id="desc">A compact QR grid with a small blue accent mark.</desc>
  <g fill="#111827">
    <rect x="8" y="8" width="16" height="16" rx="2"/>
    <rect x="12" y="12" width="8" height="8" rx="1" fill="#ffffff"/>
    <rect x="40" y="8" width="16" height="16" rx="2"/>
    <rect x="44" y="12" width="8" height="8" rx="1" fill="#ffffff"/>
    <rect x="8" y="40" width="16" height="16" rx="2"/>
    <rect x="12" y="44" width="8" height="8" rx="1" fill="#ffffff"/>
    <rect x="30" y="10" width="6" height="6" rx="1"/>
    <rect x="30" y="20" width="6" height="6" rx="1"/>
    <rect x="10" y="30" width="6" height="6" rx="1"/>
    <rect x="20" y="30" width="6" height="6" rx="1"/>
    <rect x="30" y="30" width="6" height="6" rx="1"/>
    <rect x="42" y="30" width="6" height="6" rx="1"/>
    <rect x="52" y="30" width="4" height="6" rx="1"/>
    <rect x="30" y="42" width="6" height="6" rx="1"/>
    <rect x="40" y="40" width="6" height="6" rx="1"/>
    <rect x="50" y="40" width="6" height="6" rx="1"/>
    <rect x="30" y="52" width="6" height="4" rx="1"/>
    <rect x="40" y="50" width="6" height="6" rx="1"/>
  </g>
  <path d="M49 53l8-8" stroke="#2563eb" stroke-width="5" stroke-linecap="round"/>
  <circle cx="57" cy="45" r="3" fill="#60a5fa"/>
</svg>
